<svg width="84" height="16" viewBox="0 0 84 16" fill="none" xmlns="http://www.w3.org/2000/svg">
<path d="M7.8179 15.7072C6.33461 15.7072 4.9942 15.3874 3.79668 14.7478C2.61277 14.1082 1.68061 13.2305 1.0002 12.1146C0.3334 10.9852 0 9.7196 0 8.31795C0 6.91631 0.3334 5.65755 1.0002 4.54168C1.68061 3.4122 2.61277 2.52767 3.79668 1.88809C4.9942 1.2485 6.33461 0.928711 7.8179 0.928711C9.30119 0.928711 10.6348 1.2485 11.8187 1.88809C13.0026 2.52767 13.9348 3.4122 14.6152 4.54168C15.2956 5.65755 15.6358 6.91631 15.6358 8.31795C15.6358 9.7196 15.2956 10.9852 14.6152 12.1146C13.9348 13.2305 13.0026 14.1082 11.8187 14.7478C10.6348 15.3874 9.30119 15.7072 7.8179 15.7072ZM7.8179 12.8903C8.66161 12.8903 9.42367 12.6998 10.1041 12.3188C10.7845 11.9241 11.3152 11.3798 11.6962 10.6858C12.0909 9.99176 12.2882 9.20249 12.2882 8.31795C12.2882 7.43342 12.0909 6.64415 11.6962 5.95013C11.3152 5.25611 10.7845 4.71859 10.1041 4.33756C9.42367 3.94292 8.66161 3.74561 7.8179 3.74561C6.97419 3.74561 6.21214 3.94292 5.53173 4.33756C4.85132 4.71859 4.31379 5.25611 3.91916 5.95013C3.53813 6.64415 3.34761 7.43342 3.34761 8.31795C3.34761 9.20249 3.53813 9.99176 3.91916 10.6858C4.31379 11.3798 4.85132 11.9241 5.53173 12.3188C6.21214 12.6998 6.97419 12.8903 7.8179 12.8903Z" fill="black"/>
<path d="M20.4552 15.7072C19.489 15.7072 18.5977 15.5303 17.7812 15.1765C16.9783 14.8091 16.3183 14.2919 15.8012 13.6251L17.6383 11.4206C18.6373 12.356 19.2985 12.9924 20.2919 12.9924C21.6391 12.9924 22.3127 12.2031 22.3127 10.6245V3.82725H19.5248V1.17366H25.5991V10.4408C25.5991 12.1963 25.1636 13.5163 24.2927 14.4008C23.4218 15.2717 22.1426 15.7072 20.4552 15.7072Z" fill="black"/>
<path d="M35.7851 15.7072C34.3018 15.7072 32.9614 15.3874 31.7639 14.7478C30.58 14.1082 29.6478 13.2305 28.9674 12.1146C28.3006 10.9852 27.9672 9.7196 27.9672 8.31795C27.9672 6.91631 28.3006 5.65755 28.9674 4.54168C29.6478 3.4122 30.58 2.52767 31.7639 1.88809C32.9614 1.2485 34.3018 0.928711 35.7851 0.928711C37.2684 0.928711 38.602 1.2485 39.7859 1.88809C40.9698 2.52767 41.902 3.4122 42.5824 4.54168C43.2628 5.65755 43.603 6.91631 43.603 8.31795C43.603 9.7196 43.2628 10.9852 42.5824 12.1146C41.902 13.2305 40.9698 14.1082 39.7859 14.7478C38.602 15.3874 37.2684 15.7072 35.7851 15.7072ZM35.7851 12.8903C36.6288 12.8903 37.3909 12.6998 38.0713 12.3188C38.7517 11.9241 39.2824 11.3798 39.6634 10.6858C40.0581 9.99176 40.2554 9.20249 40.2554 8.31795C40.2554 7.43342 40.0581 6.64415 39.6634 5.95013C39.2824 5.25611 38.7517 4.71859 38.0713 4.33756C37.3909 3.94292 36.6288 3.74561 35.7851 3.74561C34.9414 3.74561 34.1793 3.94292 33.4989 4.33756C32.8185 4.71859 32.281 5.25611 31.8864 5.95013C31.5053 6.64415 31.3148 7.43342 31.3148 8.31795C31.3148 9.20249 31.5053 9.99176 31.8864 10.6858C32.281 11.3798 32.8185 11.9241 33.4989 12.3188C34.1793 12.6998 34.9414 12.8903 35.7851 12.8903Z" fill="black"/>
<path d="M67.206 1.17366L62.5316 15.4622H58.9798L55.8363 5.78683L52.5908 15.4622H49.0595L44.3646 1.17366H47.7939L51.019 11.2165L54.3871 1.17366H57.4489L60.7149 11.2981L64.0421 1.17366H67.206Z" fill="black"/>
<path d="M75.7924 15.7072C74.3091 15.7072 72.9687 15.3874 71.7712 14.7478C70.5872 14.1082 69.6551 13.2305 68.9747 12.1146C68.3079 10.9852 67.9745 9.7196 67.9745 8.31795C67.9745 6.91631 68.3079 5.65755 68.9747 4.54168C69.6551 3.4122 70.5872 2.52767 71.7712 1.88809C72.9687 1.2485 74.3091 0.928711 75.7924 0.928711C77.2757 0.928711 78.6093 1.2485 79.7932 1.88809C80.9771 2.52767 81.9092 3.4122 82.5897 4.54168C83.2701 5.65755 83.6103 6.91631 83.6103 8.31795C83.6103 9.7196 83.2701 10.9852 82.5897 12.1146C81.9092 13.2305 80.9771 14.1082 79.7932 14.7478C78.6093 15.3874 77.2757 15.7072 75.7924 15.7072ZM75.7924 12.8903C76.6361 12.8903 77.3981 12.6998 78.0785 12.3188C78.7589 11.9241 79.2897 11.3798 79.6707 10.6858C80.0653 9.99176 80.2627 9.20249 80.2627 8.31795C80.2627 7.43342 80.0653 6.64415 79.6707 5.95013C79.2897 5.25611 78.7589 4.71859 78.0785 4.33756C77.3981 3.94292 76.6361 3.74561 75.7924 3.74561C74.9487 3.74561 74.1866 3.94292 73.5062 4.33756C72.8258 4.71859 72.2883 5.25611 71.8936 5.95013C71.5126 6.64415 71.3221 7.43342 71.3221 8.31795C71.3221 9.20249 71.5126 9.99176 71.8936 10.6858C72.2883 11.3798 72.8258 11.9241 73.5062 12.3188C74.1866 12.6998 74.9487 12.8903 75.7924 12.8903Z" fill="black"/>
</svg>
